<svg xmlns="http://www.w3.org/2000/svg" xmlns:xlink="http://www.w3.org/1999/xlink" width="36" height="36" viewBox="0 0 36 36">
  <defs>
    <clipPath id="clip-bp">
      <rect width="36" height="36"/>
    </clipPath>
  </defs>
  <g id="bp" clip-path="url(#clip-bp)">
    <g id="Group_33" data-name="Group 33" transform="translate(-342.209 -191.602)">
      <path id="Path_108" data-name="Path 108" d="M1.134,0H5.8A7.013,7.013,0,0,0,7.7-.237,3.961,3.961,0,0,0,9.132-.949a3.15,3.15,0,0,0,.905-1.178,3.927,3.927,0,0,0,.316-1.626,3.437,3.437,0,0,0-.127-.936,2.852,2.852,0,0,0-.391-.839,2.739,2.739,0,0,0-.628-.633A3.131,3.131,0,0,0,8.2-6.609v-.009a3.039,3.039,0,0,0,.593-.3A3,3,0,0,0,9.272-7.3a2.559,2.559,0,0,0,.584-.9A3.157,3.157,0,0,0,10.063-9.3a3.44,3.44,0,0,0-.33-1.556,2.92,2.92,0,0,0-.936-1.09,4.259,4.259,0,0,0-1.463-.642,7.966,7.966,0,0,0-1.9-.211h-4.3ZM3.612-5.643h2.3a2.878,2.878,0,0,1,.9.141,1.544,1.544,0,0,1,.615.378,1.417,1.417,0,0,1,.347.58,2.529,2.529,0,0,1,.11.773,1.857,1.857,0,0,1-.145.747,1.542,1.542,0,0,1-.426.571,1.9,1.9,0,0,1-.637.334A2.821,2.821,0,0,1,5.81-2h-2.2Zm0-1.784v-3.357H5.44a4.152,4.152,0,0,1,1.042.132,1.528,1.528,0,0,1,.708.4,1.2,1.2,0,0,1,.3.483,2.056,2.056,0,0,1,.1.677,1.728,1.728,0,0,1-.119.659,1.357,1.357,0,0,1-.338.492,1.654,1.654,0,0,1-.694.382,3.714,3.714,0,0,1-.993.136Zm11.2,2.733h1.907a5.633,5.633,0,0,0,1.89-.3,4.259,4.259,0,0,0,1.441-.835,3.627,3.627,0,0,0,.91-1.257,3.908,3.908,0,0,0,.321-1.591,4.255,4.255,0,0,0-.321-1.679,3.742,3.742,0,0,0-.91-1.3,4.316,4.316,0,0,0-1.441-.839,5.559,5.559,0,0,0-1.89-.3H12.345V0h2.47Zm0-2v-4.1h1.907a2.294,2.294,0,0,1,.914.167,1.864,1.864,0,0,1,.65.457,1.925,1.925,0,0,1,.382.677,2.652,2.652,0,0,1,.127.835,2.187,2.187,0,0,1-.127.743,1.8,1.8,0,0,1-.382.628,1.883,1.883,0,0,1-.65.431,2.406,2.406,0,0,1-.914.158Z" transform="translate(349 216)" fill="#c953dd"/>
    </g>
  </g>
</svg>
