<svg xmlns="http://www.w3.org/2000/svg" width="30.582" height="29.818" viewBox="0 0 30.582 29.818">
  <path id="github-brands" d="M10.229,32.01c0,.123-.142.222-.321.222-.2.018-.345-.08-.345-.222,0-.123.142-.222.321-.222C10.069,31.769,10.229,31.868,10.229,32.01Zm-1.918-.277c-.043.123.08.265.265.3a.289.289,0,0,0,.382-.123c.037-.123-.08-.265-.265-.321a.316.316,0,0,0-.382.142Zm2.725-.1c-.179.043-.3.16-.284.3.018.123.179.2.364.16s.3-.16.284-.284S11.216,31.609,11.037,31.627ZM15.094,8A14.785,14.785,0,0,0,0,23.045,15.458,15.458,0,0,0,10.451,37.793c.789.142,1.067-.345,1.067-.746,0-.382-.018-2.491-.018-3.786,0,0-4.316.925-5.222-1.837,0,0-.7-1.794-1.714-2.257,0,0-1.412-.968.1-.95a3.255,3.255,0,0,1,2.38,1.591A3.259,3.259,0,0,0,11.536,31.1a3.427,3.427,0,0,1,.987-2.078C9.076,28.637,5.6,28.137,5.6,22.206a4.673,4.673,0,0,1,1.455-3.632,5.826,5.826,0,0,1,.16-4.187c1.289-.4,4.254,1.665,4.254,1.665a14.566,14.566,0,0,1,7.744,0s2.966-2.072,4.254-1.665a5.823,5.823,0,0,1,.16,4.187,4.793,4.793,0,0,1,1.591,3.632c0,5.95-3.632,6.425-7.078,6.813a3.646,3.646,0,0,1,1.048,2.861c0,2.078-.018,4.649-.018,5.155,0,.4.284.888,1.067.746A15.316,15.316,0,0,0,30.582,23.045C30.582,14.493,23.646,8,15.094,8Zm-9.1,21.266c-.08.062-.062.2.043.321.1.1.24.142.321.062.08-.062.062-.2-.043-.321C6.215,29.229,6.073,29.186,5.993,29.266Zm-.666-.5c-.043.08.018.179.142.24a.183.183,0,0,0,.265-.043c.043-.08-.018-.179-.142-.24C5.469,28.686,5.37,28.7,5.327,28.766Zm2,2.2c-.1.08-.062.265.08.382.142.142.321.16.4.062.08-.08.043-.265-.08-.382C7.59,30.881,7.405,30.863,7.325,30.961Zm-.7-.906c-.1.062-.1.222,0,.364s.265.2.345.142a.281.281,0,0,0,0-.382c-.086-.142-.247-.2-.345-.123Z" transform="translate(0 -8)" fill="#f5f5f5"/>
</svg>
