<svg xmlns="http://www.w3.org/2000/svg" xmlns:xlink="http://www.w3.org/1999/xlink" width="42" height="42" viewBox="0 0 42 42">
  <defs>
    <clipPath id="clip-path">
      <rect id="Rectangle_19" data-name="Rectangle 19" width="42" height="42" transform="translate(-0.023 -0.023)"/>
    </clipPath>
    <linearGradient id="linear-gradient" x1="0.792" y1="0.4" x2="0.474" y2="0.598" gradientUnits="objectBoundingBox">
      <stop offset="0" stop-color="#ab47bc"/>
      <stop offset="1" stop-color="#de5cf5"/>
    </linearGradient>
    <linearGradient id="linear-gradient-2" x1="0.5" x2="0.5" y2="1" gradientUnits="objectBoundingBox">
      <stop offset="0" stop-color="#dd5cf4"/>
      <stop offset="1" stop-color="#ab47bc"/>
    </linearGradient>
  </defs>
  <g id="c" transform="translate(0.023 0.023)" clip-path="url(#clip-path)">
    <path id="Path_105" data-name="Path 105" d="M17.021,29.782a8.511,8.511,0,1,1-8.511-8.511,8.511,8.511,0,0,1,8.511,8.511ZM27.587,9.637A8.509,8.509,0,1,0,16.235,16.5c6.523,2.567,8.062,5.156,7.244,12.148A8.509,8.509,0,1,0,34.83,21.784C28.306,19.217,26.766,16.627,27.587,9.637Z" transform="matrix(-0.515, 0.857, -0.857, -0.515, 50.503, 18.675)" fill="url(#linear-gradient)"/>
    <ellipse id="Ellipse_33" data-name="Ellipse 33" cx="9" cy="8.5" rx="9" ry="8.5" transform="translate(11.977 1.977)" fill="url(#linear-gradient-2)"/>
  </g>
</svg>
