<svg width="138" height="153" viewBox="0 0 138 153" fill="none" xmlns="http://www.w3.org/2000/svg">
<g clip-path="url(#clip0_813_9189)">
<rect x="5" y="5" width="128" height="126" rx="18" fill="white" stroke="#FF3E00" stroke-width="10" stroke-linejoin="round"/>
<path d="M70 153C62.6667 153 52.7675 136.937 34 135L70 135L106 135C87.2325 136.937 77.3333 153 70 153Z" fill="#FF3E00"/>
<g clip-path="url(#clip1_813_9189)">
<path d="M97.248 39.0668C90.054 28.6001 75.732 25.5334 65.436 32.1334L47.286 43.8668C42.336 47.0001 38.904 52.1334 37.914 57.9334C37.056 62.8001 37.782 67.8001 40.092 72.1334C38.508 74.5334 37.452 77.2001 36.99 80.0001C35.934 85.9334 37.32 92.0668 40.752 96.9334C48.012 107.4 62.268 110.467 72.564 103.867L90.714 92.2001C95.664 89.0668 99.096 83.9334 100.086 78.1334C100.944 73.2668 100.218 68.2668 97.908 63.9334C99.492 61.5334 100.548 58.8668 101.01 56.0668C102.132 50.0668 100.746 43.9334 97.248 39.0668Z" fill="#FF3E00"/>
<path d="M63.654 97.9333C57.78 99.4667 51.642 97.1333 48.21 92.1333C46.098 89.2 45.306 85.5333 45.9 81.9333C46.032 81.3333 46.164 80.8 46.296 80.2L46.626 79.1333L47.55 79.8C49.728 81.4 52.104 82.6 54.678 83.4L55.338 83.6L55.272 84.2667C55.206 85.2 55.47 86.2 55.998 87C57.054 88.5333 58.902 89.2667 60.684 88.8C61.08 88.6667 61.476 88.5333 61.806 88.3333L79.89 76.6667C80.814 76.0667 81.408 75.2 81.606 74.1333C81.804 73.0667 81.54 71.9333 80.946 71.0667C79.89 69.5333 78.042 68.8667 76.26 69.3333C75.864 69.4667 75.468 69.6 75.138 69.8L68.208 74.2667C67.086 75 65.832 75.5333 64.512 75.8667C58.638 77.4 52.5 75.0667 49.068 70.0667C47.022 67.1333 46.164 63.4667 46.824 59.8667C47.418 56.4 49.53 53.2667 52.5 51.4L70.65 39.7333C71.772 39 73.026 38.4667 74.346 38.0667C80.22 36.5333 86.358 38.8667 89.79 43.8667C91.902 46.8 92.694 50.4667 92.1 54.0667C91.968 54.6667 91.836 55.2 91.638 55.8L91.308 56.8667L90.384 56.2C88.206 54.6 85.83 53.4 83.256 52.6L82.596 52.4L82.662 51.7333C82.728 50.8 82.464 49.8 81.936 49C80.88 47.4667 79.032 46.8 77.25 47.2667C76.854 47.4 76.458 47.5333 76.128 47.7333L58.044 59.4C57.12 60 56.526 60.8667 56.328 61.9333C56.13 63 56.394 64.1333 56.988 65C58.044 66.5333 59.892 67.2 61.674 66.7333C62.07 66.6 62.466 66.4667 62.796 66.2667L69.726 61.8C70.848 61.0667 72.102 60.5333 73.422 60.1333C79.296 58.6 85.434 60.9333 88.866 65.9333C90.978 68.8667 91.77 72.5333 91.176 76.1333C90.582 79.6 88.47 82.7333 85.5 84.6L67.35 96.2667C66.228 97 64.974 97.5333 63.654 97.9333Z" fill="white"/>
</g>
</g>
<defs>
<clipPath id="clip0_813_9189">
<rect width="138" height="153" fill="white"/>
</clipPath>
<clipPath id="clip1_813_9189">
<rect width="66" height="80" fill="white" transform="translate(36 28)"/>
</clipPath>
</defs>
</svg>
