<svg xmlns="http://www.w3.org/2000/svg" width="30.582" height="30.582" viewBox="0 0 30.582 30.582">
  <g id="UE_Logo_icon-only_white" transform="translate(-6.26 -6.26)">
    <path id="Path_101" data-name="Path 101" d="M87.442,81.577h0a9.309,9.309,0,0,1-5.175,6.3l-1.5-1.689-2.534,2.547a9.35,9.35,0,0,1-7.4-3.793,3.642,3.642,0,0,0,.828.156.754.754,0,0,0,.864-.841V77.382a1.135,1.135,0,0,0-1.423-1.135c-1.173.27-2.11,3.2-2.11,3.2a9.307,9.307,0,0,1,3.221-7.132,9.44,9.44,0,0,1,4.753-2.192,3.646,3.646,0,0,0-2,2.919c0,1.607.968,1.412,1.255,1.176v9.276a1.474,1.474,0,0,0,.189.326,1.37,1.37,0,0,0,1.12.567,4.543,4.543,0,0,0,2.226-1.106V75.77a2.6,2.6,0,0,0-1.152-2,2.656,2.656,0,0,1,1.891.442h0a7.056,7.056,0,0,1,.493-.542,9.317,9.317,0,0,1,5.24-2.692h0s-2.742,2.155-2.742,5.046c0,2.15.056,7.393.056,7.393C84.562,84.4,86.075,82.977,87.442,81.577Z" transform="translate(-56.804 -57.823)" fill="#f5f5f5" fill-rule="evenodd"/>
    <path id="Path_102" data-name="Path 102" d="M21.551,6.26A15.291,15.291,0,1,0,36.842,21.551,15.291,15.291,0,0,0,21.551,6.26Zm0,29.97a14.68,14.68,0,1,1,14.68-14.679A14.68,14.68,0,0,1,21.551,36.23Z" transform="translate(0)" fill="#f5f5f5" fill-rule="evenodd"/>
  </g>
</svg>
