<svg xmlns="http://www.w3.org/2000/svg" width="33.712" height="25.685" viewBox="0 0 33.712 25.685">
  <path id="discord-brands" d="M54.583,34.169a.086.086,0,0,0-.044-.04A27.811,27.811,0,0,0,47.677,32a.1.1,0,0,0-.11.052,19.348,19.348,0,0,0-.854,1.754,25.676,25.676,0,0,0-7.707,0,17.747,17.747,0,0,0-.868-1.754.108.108,0,0,0-.11-.052,27.731,27.731,0,0,0-6.862,2.127.1.1,0,0,0-.045.039,28.432,28.432,0,0,0-4.98,19.18.116.116,0,0,0,.044.079A27.96,27.96,0,0,0,34.6,57.68a.109.109,0,0,0,.118-.039,19.964,19.964,0,0,0,1.722-2.8.107.107,0,0,0-.058-.148,18.414,18.414,0,0,1-2.63-1.253.108.108,0,0,1-.011-.179c.177-.132.354-.27.522-.409a.1.1,0,0,1,.109-.015,19.943,19.943,0,0,0,16.942,0,.1.1,0,0,1,.11.013c.169.139.346.278.524.411a.108.108,0,0,1-.009.179,17.281,17.281,0,0,1-2.631,1.252.108.108,0,0,0-.057.15,22.421,22.421,0,0,0,1.721,2.8.107.107,0,0,0,.118.04,27.867,27.867,0,0,0,8.432-4.253.108.108,0,0,0,.044-.078A28.244,28.244,0,0,0,54.583,34.169ZM37.266,49.519a3.419,3.419,0,0,1,0-6.793,3.419,3.419,0,0,1,0,6.793Zm11.2,0a3.419,3.419,0,0,1,0-6.793,3.419,3.419,0,0,1,0,6.793Z" transform="translate(-26 -31.999)" fill="#f5f5f5"/>
</svg>
