<svg xmlns="http://www.w3.org/2000/svg" xmlns:xlink="http://www.w3.org/1999/xlink" width="36" height="36" viewBox="0 0 36 36">
  <defs>
    <filter id="Rectangle_29" x="6" y="2" width="24" height="24" filterUnits="userSpaceOnUse">
      <feOffset dy="3" input="SourceAlpha"/>
      <feGaussianBlur stdDeviation="3" result="blur"/>
      <feFlood flood-opacity="0.161"/>
      <feComposite operator="in" in2="blur"/>
      <feComposite in="SourceGraphic"/>
    </filter>
    <filter id="Rectangle_34" x="-1" y="2" width="24" height="24" filterUnits="userSpaceOnUse">
      <feOffset dy="3" input="SourceAlpha"/>
      <feGaussianBlur stdDeviation="3" result="blur-2"/>
      <feFlood flood-opacity="0.161"/>
      <feComposite operator="in" in2="blur-2"/>
      <feComposite in="SourceGraphic"/>
    </filter>
    <filter id="Rectangle_16" x="6" y="9" width="24" height="24" filterUnits="userSpaceOnUse">
      <feOffset dy="3" input="SourceAlpha"/>
      <feGaussianBlur stdDeviation="3" result="blur-3"/>
      <feFlood flood-opacity="0.161"/>
      <feComposite operator="in" in2="blur-3"/>
      <feComposite in="SourceGraphic"/>
    </filter>
    <filter id="Rectangle_32" x="13" y="16" width="24" height="24" filterUnits="userSpaceOnUse">
      <feOffset dy="3" input="SourceAlpha"/>
      <feGaussianBlur stdDeviation="3" result="blur-4"/>
      <feFlood flood-opacity="0.161"/>
      <feComposite operator="in" in2="blur-4"/>
      <feComposite in="SourceGraphic"/>
    </filter>
    <filter id="Rectangle_31" x="6" y="16" width="24" height="24" filterUnits="userSpaceOnUse">
      <feOffset dy="3" input="SourceAlpha"/>
      <feGaussianBlur stdDeviation="3" result="blur-5"/>
      <feFlood flood-opacity="0.161"/>
      <feComposite operator="in" in2="blur-5"/>
      <feComposite in="SourceGraphic"/>
    </filter>
    <filter id="Rectangle_28" x="13" y="9" width="24" height="24" filterUnits="userSpaceOnUse">
      <feOffset dy="3" input="SourceAlpha"/>
      <feGaussianBlur stdDeviation="3" result="blur-6"/>
      <feFlood flood-opacity="0.161"/>
      <feComposite operator="in" in2="blur-6"/>
      <feComposite in="SourceGraphic"/>
    </filter>
    <filter id="Rectangle_35" x="-1" y="16" width="24" height="24" filterUnits="userSpaceOnUse">
      <feOffset dy="3" input="SourceAlpha"/>
      <feGaussianBlur stdDeviation="3" result="blur-7"/>
      <feFlood flood-opacity="0.161"/>
      <feComposite operator="in" in2="blur-7"/>
      <feComposite in="SourceGraphic"/>
    </filter>
    <filter id="Rectangle_33" x="13" y="2" width="24" height="24" filterUnits="userSpaceOnUse">
      <feOffset dy="3" input="SourceAlpha"/>
      <feGaussianBlur stdDeviation="3" result="blur-8"/>
      <feFlood flood-opacity="0.161"/>
      <feComposite operator="in" in2="blur-8"/>
      <feComposite in="SourceGraphic"/>
    </filter>
    <filter id="Rectangle_63" x="-1" y="9" width="24" height="24" filterUnits="userSpaceOnUse">
      <feOffset dy="3" input="SourceAlpha"/>
      <feGaussianBlur stdDeviation="3" result="blur-9"/>
      <feFlood flood-opacity="0.161"/>
      <feComposite operator="in" in2="blur-9"/>
      <feComposite in="SourceGraphic"/>
    </filter>
    <filter id="Rectangle_64" x="8" y="11" width="20" height="20" filterUnits="userSpaceOnUse">
      <feOffset dy="3" input="SourceAlpha"/>
      <feGaussianBlur stdDeviation="3" result="blur-10"/>
      <feFlood flood-opacity="0.161"/>
      <feComposite operator="in" in2="blur-10"/>
      <feComposite in="SourceGraphic"/>
    </filter>
    <clipPath id="clip-grid">
      <rect width="36" height="36"/>
    </clipPath>
  </defs>
  <g id="grid" clip-path="url(#clip-grid)">
    <g id="Group_36" data-name="Group 36" transform="translate(-342 -191)">
      <g transform="matrix(1, 0, 0, 1, 342, 191)" filter="url(#Rectangle_29)">
        <rect id="Rectangle_29-2" data-name="Rectangle 29" width="6" height="6" rx="1" transform="translate(15 8)" fill="#c953dd"/>
      </g>
      <g transform="matrix(1, 0, 0, 1, 342, 191)" filter="url(#Rectangle_34)">
        <rect id="Rectangle_34-2" data-name="Rectangle 34" width="6" height="6" rx="1" transform="translate(8 8)" fill="#c953dd"/>
      </g>
      <g transform="matrix(1, 0, 0, 1, 342, 191)" filter="url(#Rectangle_16)">
        <rect id="Rectangle_16-2" data-name="Rectangle 16" width="6" height="6" rx="1" transform="translate(15 15)" fill="#c953dd"/>
      </g>
      <g transform="matrix(1, 0, 0, 1, 342, 191)" filter="url(#Rectangle_32)">
        <rect id="Rectangle_32-2" data-name="Rectangle 32" width="6" height="6" rx="1" transform="translate(22 22)" fill="#c953dd"/>
      </g>
      <g transform="matrix(1, 0, 0, 1, 342, 191)" filter="url(#Rectangle_31)">
        <rect id="Rectangle_31-2" data-name="Rectangle 31" width="6" height="6" rx="1" transform="translate(15 22)" fill="#c953dd"/>
      </g>
      <g transform="matrix(1, 0, 0, 1, 342, 191)" filter="url(#Rectangle_28)">
        <rect id="Rectangle_28-2" data-name="Rectangle 28" width="6" height="6" rx="1" transform="translate(22 15)" fill="#c953dd"/>
      </g>
      <g transform="matrix(1, 0, 0, 1, 342, 191)" filter="url(#Rectangle_35)">
        <rect id="Rectangle_35-2" data-name="Rectangle 35" width="6" height="6" rx="1" transform="translate(8 22)" fill="#c953dd"/>
      </g>
      <g transform="matrix(1, 0, 0, 1, 342, 191)" filter="url(#Rectangle_33)">
        <rect id="Rectangle_33-2" data-name="Rectangle 33" width="6" height="6" rx="1" transform="translate(22 8)" fill="#c953dd"/>
      </g>
      <g transform="matrix(1, 0, 0, 1, 342, 191)" filter="url(#Rectangle_63)">
        <rect id="Rectangle_63-2" data-name="Rectangle 63" width="6" height="6" rx="1" transform="translate(8 15)" fill="#c953dd"/>
      </g>
      <g transform="matrix(1, 0, 0, 1, 342, 191)" filter="url(#Rectangle_64)">
        <rect id="Rectangle_64-2" data-name="Rectangle 64" width="2" height="2" rx="1" transform="translate(17 17)" fill="#c953dd" opacity="0"/>
      </g>
      <rect id="Rectangle_65" data-name="Rectangle 65" width="6" height="6" rx="1" transform="translate(350 199)" fill="#c953dd"/>
      <rect id="Rectangle_66" data-name="Rectangle 66" width="6" height="6" rx="1" transform="translate(357 199)" fill="#c953dd"/>
      <rect id="Rectangle_67" data-name="Rectangle 67" width="6" height="6" rx="1" transform="translate(364 199)" fill="#c953dd"/>
      <rect id="Rectangle_68" data-name="Rectangle 68" width="6" height="6" rx="1" transform="translate(364 206)" fill="#c953dd"/>
      <rect id="Rectangle_69" data-name="Rectangle 69" width="6" height="6" rx="1" transform="translate(364 213)" fill="#c953dd"/>
      <rect id="Rectangle_70" data-name="Rectangle 70" width="6" height="6" rx="1" transform="translate(357 213)" fill="#c953dd"/>
      <rect id="Rectangle_71" data-name="Rectangle 71" width="6" height="6" rx="1" transform="translate(350 213)" fill="#c953dd"/>
      <rect id="Rectangle_72" data-name="Rectangle 72" width="6" height="6" rx="1" transform="translate(350 206)" fill="#c953dd"/>
      <rect id="Rectangle_73" data-name="Rectangle 73" width="6" height="6" rx="1" transform="translate(357 206)" fill="#c953dd"/>
    </g>
  </g>
</svg>
